<svg xmlns="http://www.w3.org/2000/svg" version="1.0" viewBox="0 0 389 293">
  <path
  fill="#00FFF5"
    d="M304.4 30.2c-1.6 1.2-8.8 7.5-16.1 14l-13.2 11.9-7.8-3.9c-14.1-7.1-32.6-12.4-48.2-13.8l-7.1-.7v38.2l5.8 1.6c3.1.9 9.4 3.4 14 5.5l8.3 3.9-14.3 12.8c-7.9 7-24.3 21.7-36.4 32.5-18 16-22.5 20.5-23.8 24-2.4 5.9-1.4 11.8 2.7 16.5 5.7 6.5 13.3 8 20.5 4.1C194.1 173.8 315 38 315 35c0-2.4-4.2-7-6.3-7-.8 0-2.7 1-4.3 2.2zM187 156c2.9 2.9 3.4 6.3 1.5 9.9-4.1 8-15.5 5.4-15.5-3.6 0-5.1 3.2-8.3 8.2-8.3 2.5 0 4.5.7 5.8 2zm-7.5-116c-12.9 2.5-26.6 7-37.9 12.7-9.3 4.7-20.6 11.8-20.6 13.1 0 .4 4.1 4.8 9.1 9.8l9.1 9.1 7.7-3.2c12.2-5.1 23.1-7.5 37.9-8.2l13.2-.6V38l-4.2.1c-2.4 0-8.8.9-14.3 1.9zm-76.6 41c-14.7 15.7-25.6 33.4-32.3 52.7-3.5 10.2-6.6 23.9-6.6 29.4v2.9h20.7l1.7-8.6c4.4-22.7 13.9-39.8 31.1-56.3l9.3-8.8-8.9-8.9-8.9-8.9-6.1 6.5zm180.4 11.3-17.1 17.2 4.9 6.5c8.8 11.8 16.4 30.2 18.4 44.7l.7 5.3H346v-2.4c0-1.3-.7-6.1-1.6-10.7-4.6-24.5-15.4-46.4-32.8-66.8-11.2-13.1-8.6-13.7-28.3 6.2zm-232 91.4c-6.3.5-7.2 2.1-4.3 8.5 3.4 7.8 7 36.1 7 56.5v6.2l-4.6.3c-5.4.3-7.7 2.6-5.5 5.2 1.2 1.4 8.5 1.6 69.5 1.6h68.1l1.3 2.9c3 6.8 16.2 12 26.8 10.6 7.4-.9 15.3-5.1 18.3-9.7l2.4-3.8H298c60.6 0 67.9-.2 69.1-1.6 2-2.4-.1-4.8-4.5-5.2l-3.6-.3v-7.8c0-20.3 3.4-46.5 7.2-55.3 1.1-2.6 1.8-5.4 1.5-6.2-1.5-3.7-37.6-2.6-61.1 2-25.1 4.9-48.3 14.3-67.9 27.6-5.4 3.7-14 11.1-21 18l-11.9 11.9-2-2.8c-4.6-6.2-21-21.2-29.6-27.1-28.7-19.7-63.6-30.2-103.7-31.5-7.7-.2-16.3-.2-19.2 0zm47.7 9.8c20 3.3 42.4 10.7 56.6 18.6 17.6 9.7 35.7 25 45.3 38.1 2.3 3.2 4.8 5.8 5.5 5.8.8 0 3.7-3.1 6.6-6.9 11-14.9 30.3-30.4 49.4-39.6 24.1-11.7 48.1-17.3 78-18.2l17.9-.6-.6 2.4c-3.2 11.5-5.7 34.5-5.7 51.1V255h-63.4c-49.7 0-63.7.3-64.3 1.2-.4.7-1.2 2.6-1.8 4.2-1.4 4.3-8.7 7.8-16.2 7.9-10.1.1-16.4-3.4-18.2-9.9l-.7-2.9-63.1-.3-63-.2-.6-17.4c-.7-18.5-2.8-35.8-5.2-42.7l-1.5-4.2 17.7.6c9.8.3 22.1 1.3 27.3 2.2z" />
  <path
  fill="#00FFF5"
    d="M60.3 203.6c-1.4 3.7 1 4.9 11.8 5.7 41.8 3.1 80.1 16.7 105.9 37.6 8.2 6.7 11.3 7.4 11.8 2.9.3-2.3-.9-3.6-9.4-10.2-18.5-14.2-41-24.7-66.6-31-24.2-6-52.1-8.6-53.5-5zm262.2-.1c-37.1 5.1-69.4 18.1-94.3 38-6.1 4.9-7.2 6.3-7 8.4.5 4.1 3.6 3.7 9.3-1 26.5-22 62.8-35.7 103.5-39 7.4-.6 14.2-1.4 15-1.9.8-.4 1.5-1.8 1.5-3.1 0-2.3-.2-2.4-9-2.6-4.9-.1-13.5.5-19 1.2zm-244 28.1c-9.7 1.6-13.3 4.1-10.2 7.2 1.3 1.2 3.1 1.2 12.5.2 11.7-1.3 26.9-.4 40.2 2.4 7.1 1.5 10 .8 10-2.3 0-2.9-1.7-3.6-12.5-5.6-9.7-1.7-33.9-2.8-40-1.9zm227 0c-9.9 1.4-22.2 3.8-23.7 4.6-2.2 1.1-2.3 4.1-.4 5.7 1.1.9 3.1.9 8.9-.3 15.3-3.2 33.3-3.7 49.5-1.5 1.9.3 3-.2 3.6-1.6.9-2.6-.5-4.4-4.2-5.6-3.8-1.1-28.4-2.1-33.7-1.3z" />
</svg>